HIERARCHY
ROOT Hips
{
	OFFSET 0.000000 0.000000 0.000000
	CHANNELS 6 Xposition Yposition Zposition Zrotation Yrotation Xrotation 
	JOINT LeftUpLeg_virtual
	{
		OFFSET 0.000000 0.000000 0.000000
		CHANNELS 3 Zrotation Yrotation Xrotation
		JOINT LeftUpLeg
		{
			OFFSET 8.479694 -4.795517 -0.379053
			CHANNELS 3 Zrotation Yrotation Xrotation
			JOINT LeftLeg
			{
				OFFSET 0.485052 -32.551468 0.112863
				CHANNELS 3 Zrotation Yrotation Xrotation
				JOINT LeftFoot
				{
					OFFSET 0.438033 -32.635670 -3.012641
					CHANNELS 3 Zrotation Yrotation Xrotation
					JOINT LeftToeBase
					{
						OFFSET 0.970169 -13.225353 11.864223
						CHANNELS 3 Zrotation Yrotation Xrotation
						End Site
						{
							OFFSET 0.000000 0.000000 0.000000
						}
					}
				}
			}
		}
	}
	JOINT RightUpLeg_virtual
	{
		OFFSET 0.000000 0.000000 0.000000
		CHANNELS 3 Zrotation Yrotation Xrotation
		JOINT RightUpLeg
		{
			OFFSET -8.479694 -4.795517 -0.379053
			CHANNELS 3 Zrotation Yrotation Xrotation
			JOINT RightLeg
			{
				OFFSET -0.484100 -32.551483 0.112903
				CHANNELS 3 Zrotation Yrotation Xrotation
				JOINT RightFoot
				{
					OFFSET -0.438985 -32.635651 -3.012681
					CHANNELS 3 Zrotation Yrotation Xrotation
					JOINT RightToeBase
					{
						OFFSET -0.970169 -13.225354 11.864223
						CHANNELS 3 Zrotation Yrotation Xrotation
						End Site
						{
							OFFSET 0.000000 0.000000 0.000000
						}
					}
				}
			}
		}
	}
	JOINT Spine_virtual
	{
		OFFSET 0.000000 0.000000 0.000000
		CHANNELS 3 Zrotation Yrotation Xrotation
		JOINT Spine
		{
			OFFSET 0.000000 7.722015 1.166203
			CHANNELS 3 Zrotation Yrotation Xrotation
			JOINT Spine1
			{
				OFFSET 0.000000 12.024086 0.248766
				CHANNELS 3 Zrotation Yrotation Xrotation
				JOINT Spine2
				{
					OFFSET -0.000000 11.503036 -0.491240
					CHANNELS 3 Zrotation Yrotation Xrotation
					JOINT Neck_virtual
					{
						OFFSET 0.000000 0.000000 0.000000
						CHANNELS 3 Zrotation Yrotation Xrotation
						JOINT Neck
						{
							OFFSET 0.000000 18.430687 -3.123054
							CHANNELS 3 Zrotation Yrotation Xrotation
							JOINT Head
							{
								OFFSET -0.000000 9.051071 1.034021
								CHANNELS 3 Zrotation Yrotation Xrotation
								End Site
								{
									OFFSET 0.000000 0.000000 0.000000
								}
							}
						}
					}
					JOINT LeftShoulder_virtual
					{
						OFFSET 0.000000 0.000000 0.000000
						CHANNELS 3 Zrotation Yrotation Xrotation
						JOINT LeftShoulder
						{
							OFFSET 6.197824 13.665230 -4.064723
							CHANNELS 3 Zrotation Yrotation Xrotation
							JOINT LeftArm
							{
								OFFSET 7.778132 -0.187073 -1.709282
								CHANNELS 3 Zrotation Yrotation Xrotation
								JOINT LeftForeArm
								{
									OFFSET 21.954697 0.000000 -2.041093
									CHANNELS 3 Zrotation Yrotation Xrotation
									JOINT LeftHand
									{
										OFFSET 22.992908 0.000000 -0.870901
										CHANNELS 3 Zrotation Yrotation Xrotation
										End Site
										{
											OFFSET 0.000000 0.000000 0.000000
										}
									}
								}
							}
						}
					}
					JOINT RightShoulder_virtual
					{
						OFFSET 0.000000 0.000000 0.000000
						CHANNELS 3 Zrotation Yrotation Xrotation
						JOINT RightShoulder
						{
							OFFSET -6.197824 13.665230 -4.064723
							CHANNELS 3 Zrotation Yrotation Xrotation
							JOINT RightArm
							{
								OFFSET -7.778132 -0.187073 -1.709282
								CHANNELS 3 Zrotation Yrotation Xrotation
								JOINT RightForeArm
								{
									OFFSET -21.954697 0.000000 -2.041093
									CHANNELS 3 Zrotation Yrotation Xrotation
									JOINT RightHand
									{
										OFFSET -22.992908 0.000000 -0.870901
										CHANNELS 3 Zrotation Yrotation Xrotation
										End Site
										{
											OFFSET 0.000000 0.000000 0.000000
										}
									}
								}
							}
						}
					}
				}
			}
		}
	}
}
MOTION
Frames: 14
Frame Time: 0.033333
-13.903806 81.118973 46.055450 -179.843416 6.862194 -179.816491 -4.313610 -0.551313 10.090777 4.665062 8.038522 -31.997517 5.094097 2.481076 41.910468 -2.223779 -11.609842 -4.827620 0.000000 0.000000 0.000000 0.854379 -0.589602 8.817890 2.506102 -4.973684 -25.639480 -0.840193 5.273052 30.602362 2.901343 3.832465 -10.760452 0.000000 0.000000 0.000000 2.566059 0.983767 0.879204 -4.875349 1.156509 -0.307476 0.900458 -2.175580 7.435396 -0.008561 0.066833 0.066389 0.775792 -1.500876 7.896160 -2.048620 6.730611 -4.101241 0.000000 0.000000 0.000000 1.946523 -0.749268 4.649565 0.038683 -6.270310 -0.255828 -13.443161 -46.723804 2.431545 5.120762 -48.422476 6.833133 0.000000 0.000000 0.000000 -1.485216 0.695161 4.275683 18.836082 14.012981 5.240289 7.244523 40.314550 -0.962262 0.360098 57.306086 0.275687 0.000000 0.000000 0.000000 
-13.275298 81.016754 46.020191 -179.813268 7.434279 -179.784799 -4.293744 -0.488311 9.888425 4.746685 9.192955 -33.162252 5.229569 2.231044 43.678022 -2.472186 -10.840737 -4.363629 0.000000 0.000000 0.000000 0.672984 -0.347759 8.476169 3.190763 -5.025889 -24.792217 -0.815219 5.271283 30.079497 2.909451 3.604198 -11.310995 0.000000 0.000000 0.000000 2.628460 1.104686 0.811179 -4.925412 1.093117 -0.264381 0.849012 -2.270553 7.290195 -0.042702 0.046562 0.073705 0.752386 -1.525424 7.776357 -2.197425 6.895206 -4.221053 0.000000 0.000000 0.000000 1.946680 -0.755789 4.498630 0.372016 -5.481452 -0.614645 -10.602795 -43.704461 -1.752062 4.507653 -42.248265 6.479852 0.000000 0.000000 0.000000 -1.450176 0.666095 4.148371 18.434102 12.832206 4.379839 4.721267 38.044072 -6.563492 -0.119178 52.128239 -0.233663 0.000000 0.000000 0.000000 
-12.756100 80.946663 45.767754 -179.850929 7.825254 179.955459 -4.077944 -0.192511 9.677044 4.394126 10.782924 -34.413515 5.671849 3.174754 44.744491 -2.306911 -9.846960 -4.499888 0.000000 0.000000 0.000000 0.453227 -0.486962 8.305565 3.609722 -4.315551 -23.888873 -0.824288 5.172702 29.621844 2.893956 3.277840 -11.883476 0.000000 0.000000 0.000000 2.584560 1.016703 0.920167 -4.952104 1.109700 -0.209008 0.817818 -2.322810 7.149279 -0.022302 0.044954 -0.013888 0.753784 -1.542587 7.588597 -2.151086 7.062354 -4.464424 0.000000 0.000000 0.000000 1.879542 -0.829809 4.334881 0.661046 -4.440793 -0.789273 -8.767487 -39.685134 -5.282622 3.937532 -37.693236 6.268690 0.000000 0.000000 0.000000 -1.437945 0.620757 3.957023 17.920931 11.431103 3.476593 3.226807 34.778647 -11.349955 -0.281248 48.176377 -0.548866 0.000000 0.000000 0.000000 
-12.308763 80.889908 45.351566 -179.900462 8.033347 179.731005 -3.802057 0.075555 9.510260 3.603997 12.194548 -35.725168 6.138023 4.088136 45.183546 -2.174819 -9.094764 -4.828231 0.000000 0.000000 0.000000 0.246753 -1.097436 8.349553 3.921635 -3.471936 -22.974813 -0.835061 4.968406 29.327654 2.915922 2.939298 -12.378875 0.000000 0.000000 0.000000 2.482489 1.071712 1.017055 -4.975676 1.053112 -0.267056 0.797708 -2.442908 7.000237 -0.017084 0.003872 -0.028994 0.744279 -1.596617 7.350199 -1.974496 7.230893 -4.627589 0.000000 0.000000 0.000000 1.865682 -0.878268 4.135548 0.970139 -3.360354 -1.266962 -7.691929 -35.167678 -8.520939 3.309531 -34.514291 6.146381 0.000000 0.000000 0.000000 -1.447425 0.483458 3.702843 17.382044 9.651728 2.535255 2.527619 31.141421 -15.356999 -0.302466 45.116285 -0.884562 0.000000 0.000000 0.000000 
-11.919779 80.838776 44.835835 -179.836326 8.580376 179.881228 -3.645784 0.594943 9.592103 2.839739 13.483628 -36.734356 6.521362 4.769846 44.687155 -2.666787 -9.341082 -7.633174 0.000000 0.000000 0.000000 0.103189 -0.687221 8.346400 4.309659 -3.457275 -22.389599 -0.774917 4.941691 28.959124 3.043520 2.714779 -12.953044 0.000000 0.000000 0.000000 2.437378 1.187832 0.948360 -4.968919 1.098885 -0.531443 0.797414 -2.482733 6.750936 0.011460 0.005386 -0.061651 0.651824 -1.636612 7.259180 -1.707491 7.416260 -4.831649 0.000000 0.000000 0.000000 1.771708 -0.913408 4.073621 1.198720 -2.172875 -1.616106 -6.852056 -30.542321 -12.132703 2.828837 -32.166626 6.048890 0.000000 0.000000 0.000000 -1.571317 0.503345 3.578739 16.855524 7.673501 1.483870 2.205499 27.360032 -18.858388 -0.097676 42.454984 -0.991441 0.000000 0.000000 0.000000 
-11.571081 80.804733 44.289425 -179.821792 9.029942 179.910502 -3.815663 0.816635 9.742913 2.080820 15.209571 -37.543856 6.728732 5.617571 44.010221 -2.645230 -9.473858 -9.344274 0.000000 0.000000 0.000000 -0.075607 -0.629531 8.473091 4.681553 -3.347375 -21.902081 -0.757713 4.976806 28.721751 3.207534 2.546090 -13.438481 0.000000 0.000000 0.000000 2.393136 1.180571 0.976976 -5.014938 1.087375 -0.756382 0.786806 -2.555653 6.531524 0.010781 -0.013253 -0.062835 0.665247 -1.744309 7.144022 -1.359783 7.556135 -5.060535 0.000000 0.000000 0.000000 1.802608 -0.907229 3.912660 1.344846 -0.949337 -1.925969 -6.060628 -26.170372 -16.311665 2.472613 -30.261177 5.898903 0.000000 0.000000 0.000000 -1.533934 0.400551 3.594000 16.254737 5.875719 0.232078 1.847462 23.991024 -22.129492 0.298414 39.908741 -0.911009 0.000000 0.000000 0.000000 
-11.266811 80.783432 43.754570 -179.847405 9.215229 179.881392 -3.910544 0.902239 9.958630 1.364038 16.507604 -38.134476 6.964043 6.225559 43.594755 -2.598397 -9.584552 -9.936398 0.000000 0.000000 0.000000 -0.150392 -0.785106 8.656461 4.852366 -3.202702 -21.538025 -0.657464 4.970508 28.546687 3.362051 2.395677 -13.870465 0.000000 0.000000 0.000000 2.459131 1.199877 1.075454 -5.112025 1.111322 -0.946361 0.775630 -2.614646 6.336905 0.008336 -0.029029 -0.071944 0.707388 -1.755516 7.029244 -0.885612 7.633263 -5.334120 0.000000 0.000000 0.000000 1.798836 -1.080727 3.856951 1.446323 0.060766 -2.317229 -5.289657 -22.403760 -20.891397 2.155936 -28.723486 5.700927 0.000000 0.000000 0.000000 -1.576196 0.279964 3.434796 15.889395 3.911884 -0.816258 1.233980 20.893523 -25.271703 0.648019 37.502906 -0.778872 0.000000 0.000000 0.000000 
-11.038002 80.770744 43.240810 -179.827270 9.582218 179.882895 -3.873056 0.968846 10.211253 0.709182 17.515851 -38.491091 7.197138 6.602158 43.413010 -2.513997 -9.759761 -10.271307 0.000000 0.000000 0.000000 -0.085297 -0.756771 8.869350 4.853024 -2.884571 -21.269935 -0.605913 4.926510 28.500865 3.467118 2.215735 -14.217622 0.000000 0.000000 0.000000 2.616396 1.213735 1.153166 -5.241668 1.148634 -1.106356 0.767009 -2.638427 6.155943 -0.006856 0.015463 -0.054814 0.697091 -1.874265 6.938953 -0.458471 7.730747 -5.591139 0.000000 0.000000 0.000000 1.729955 -1.120421 3.866129 1.477283 1.137984 -2.757259 -4.499483 -19.582388 -25.567017 1.928246 -27.403851 5.507345 0.000000 0.000000 0.000000 -1.630062 0.185380 3.309960 15.765241 2.113701 -1.694413 0.355900 18.360867 -28.307815 0.982440 35.184312 -0.493480 0.000000 0.000000 0.000000 
-10.860349 80.780266 42.775295 -179.891528 9.707781 179.843484 -3.878822 0.847548 10.365201 0.201032 18.051121 -38.646402 7.716433 6.949472 43.555590 -1.711761 -9.050587 -9.975048 0.000000 0.000000 0.000000 -0.061464 -1.182453 9.061054 4.732750 -2.460788 -21.061481 -0.635954 4.915158 28.518591 3.548078 2.051988 -14.442928 0.000000 0.000000 0.000000 2.787399 1.035864 1.193621 -5.433470 1.127615 -1.208038 0.739885 -2.716922 5.980875 -0.035952 -0.030547 -0.049122 0.769722 -1.824428 6.881232 -0.107117 7.817691 -5.797901 0.000000 0.000000 0.000000 1.827158 -1.132875 3.731465 1.357516 2.134246 -3.139429 -3.888644 -17.268195 -29.899788 1.691538 -26.485448 5.238734 0.000000 0.000000 0.000000 -1.528021 0.139573 3.270331 15.780502 0.635460 -2.708707 -0.599461 16.420087 -31.288560 1.302726 33.153482 -0.059513 0.000000 0.000000 0.000000 
-10.726248 80.804596 42.363758 -179.843307 10.209496 179.842528 -3.746128 0.865286 10.568073 0.088787 18.177809 -38.418499 7.950890 6.754380 43.660280 -1.544753 -9.242647 -10.231386 0.000000 0.000000 0.000000 0.039216 -1.121077 9.203108 4.667014 -1.987818 -20.864928 -0.674954 4.886626 28.570347 3.561642 1.862828 -14.548788 0.000000 0.000000 0.000000 2.997510 1.217838 1.249573 -5.607093 1.185320 -1.254993 0.788730 -2.808827 5.807090 0.017111 -0.061097 -0.020644 0.686631 -2.004388 6.815136 0.139975 7.894873 -5.915240 0.000000 0.000000 0.000000 1.790555 -1.183642 3.515956 1.113226 3.105075 -3.596225 -3.227721 -15.623346 -33.979785 1.539049 -26.081240 4.888163 0.000000 0.000000 0.000000 -1.602553 0.060682 3.157746 16.004515 -0.673302 -3.716545 -1.687785 15.001380 -34.712763 1.541544 31.419502 0.460792 0.000000 0.000000 0.000000 
-10.611153 80.829208 42.027214 -179.873879 10.657965 179.840370 -3.692551 0.850047 10.644889 0.076705 18.102025 -38.136515 8.155406 6.602452 43.719088 -1.311446 -9.332644 -10.432667 0.000000 0.000000 0.000000 0.085187 -0.924291 9.287153 4.571840 -1.725448 -20.713078 -0.642464 4.860478 28.563327 3.619082 1.802567 -14.652566 0.000000 0.000000 0.000000 3.144543 1.298938 1.276884 -5.826092 1.283438 -1.239509 0.802452 -2.814811 5.605752 -0.028047 -0.007302 -0.017076 0.809643 -2.004570 6.716160 0.411137 7.864052 -6.126822 0.000000 0.000000 0.000000 1.875390 -1.190290 3.471297 0.751615 3.928566 -4.011466 -2.509813 -14.448582 -37.976757 1.342837 -26.032863 4.432583 0.000000 0.000000 0.000000 -1.535744 0.010765 2.997807 16.402221 -1.824580 -4.637293 -2.793488 13.925925 -38.706545 1.525760 30.025426 0.875332 0.000000 0.000000 0.000000 
-10.500074 80.867363 41.768009 -179.915598 10.809579 179.860710 -3.700461 0.689129 10.621129 0.177101 17.789742 -37.873378 8.328502 6.426590 43.678981 -1.059869 -9.348091 -10.545284 0.000000 0.000000 0.000000 0.077189 -1.018055 9.356818 4.556280 -1.663490 -20.560427 -0.602276 4.907665 28.492783 3.659141 1.789991 -14.613509 0.000000 0.000000 0.000000 3.197780 1.268416 1.319769 -6.039251 1.288896 -1.198801 0.865197 -2.891611 5.337706 -0.020671 -0.028676 -0.048145 0.820474 -2.049641 6.604921 0.527234 7.858977 -6.292246 0.000000 0.000000 0.000000 1.977807 -1.249231 3.305118 0.332876 4.776116 -4.509248 -1.789589 -13.366860 -41.931300 1.238022 -26.413463 3.868889 0.000000 0.000000 0.000000 -1.466970 0.018039 2.860154 16.900789 -2.802343 -5.653247 -3.867849 13.075414 -43.163435 1.428522 28.743123 1.402710 0.000000 0.000000 0.000000 
-10.398217 80.894341 41.560814 -179.922674 11.050839 179.865573 -3.711655 0.614132 10.647712 0.266506 17.616000 -37.665898 8.478426 6.258433 43.695835 -0.847734 -9.342590 -10.660445 0.000000 0.000000 0.000000 0.064867 -1.007263 9.449444 4.549921 -1.581383 -20.422064 -0.538594 4.901530 28.415573 3.680684 1.820431 -14.574068 0.000000 0.000000 0.000000 3.217634 1.269715 1.451833 -6.225092 1.316480 -1.095848 0.963103 -2.930457 5.069436 -0.023975 -0.015217 -0.018734 0.921641 -2.068071 6.369097 0.680989 7.737793 -6.434348 0.000000 0.000000 0.000000 2.092960 -1.239106 3.062694 -0.155294 5.600560 -4.934570 -1.051272 -12.424690 -45.988244 1.181411 -26.968831 3.112671 0.000000 0.000000 0.000000 -1.367453 -0.003420 2.653445 17.404584 -3.661347 -6.671734 -4.821630 12.407703 -47.910478 1.169106 27.561012 1.858221 0.000000 0.000000 0.000000 
-10.301188 80.913048 41.394798 -179.938670 11.128845 179.879602 -3.755568 0.572098 10.692636 0.384486 17.362073 -37.554245 8.583707 6.166215 43.720096 -0.690259 -9.333620 -10.734823 0.000000 0.000000 0.000000 0.025855 -1.026294 9.554929 4.596170 -1.709695 -20.341441 -0.473368 4.926994 28.301114 3.666434 1.855919 -14.560730 0.000000 0.000000 0.000000 3.189729 1.350248 1.658557 -6.408058 1.370165 -1.018446 1.065664 -2.944023 4.726607 -0.035113 -0.001267 -0.008308 1.051271 -2.079104 6.115845 0.852288 7.566361 -6.484619 0.000000 0.000000 0.000000 2.217077 -1.287562 2.858203 -0.679455 6.293902 -5.401489 -0.460081 -11.500369 -49.889034 1.173799 -27.560382 2.242075 0.000000 0.000000 0.000000 -1.273832 -0.070556 2.343081 17.879702 -4.494516 -7.525561 -5.571424 11.559994 -52.619955 0.744667 26.451991 2.219425 0.000000 0.000000 0.000000 
